<?xml version="1.0" encoding="utf-8"?>
<!-- Generator: Adobe Illustrator 27.8.1, SVG Export Plug-In . SVG Version: 6.00 Build 0)  -->
<svg version="1.1" xmlns="http://www.w3.org/2000/svg" xmlns:xlink="http://www.w3.org/1999/xlink" x="0px" y="0px"
	 viewBox="0 0 481.9 481.9" style="enable-background:new 0 0 481.9 481.9;" xml:space="preserve">
<style type="text/css">
	.st0{fill:#FFFFFF;}
	.st1{fill:#4D4D4D;}
</style>
<g id="圖層_2">
	<path class="st0" d="M453.5,481.9H28.3C12.7,481.9,0,469.2,0,453.5V28.3C0,12.7,12.7,0,28.3,0h425.2c15.7,0,28.3,12.7,28.3,28.3
		v425.2C481.9,469.2,469.2,481.9,453.5,481.9z"/>
</g>
<g id="圖層_1">
	<g>
		<path class="st1" d="M60.9,100.9c0-22.1,17.9-40,40-40h280c22.1,0,40,17.9,40,40v280c0,22.1-17.9,40-40,40h-280
			c-22.1,0-40-17.9-40-40V100.9z"/>
		<path class="st0" d="M270.9,170.9h70v20h-70V170.9z M216,235.2c5.8-2.8,19-9.3,19-28.6c0-36.2-39.5-35.7-46.8-35.7h-67.3v140h70.2
			c5.9,0,49.8-1.7,49.8-40C240.9,246.1,224.8,238,216,235.2z M150.9,195.2h29.3c2.9,0,21.9,1,21.9,15.7s-14.6,17.1-19,17.1h-32.2
			V195.2z M184.3,286.6h-33.7V248h33.7c7.3,0,23.4,2.4,23.4,20C207.7,285.7,187.2,286.6,184.3,286.6z M325.3,284.9
			c-4.7,2.9-9.3,4.4-15.5,4.4c-23.3,0-27.9-19.6-27.9-28.3h79c0-8.7,0-15.1-1.5-22.4c-1.6-7.2-12.1-37.7-51.1-37.7
			c-54.4,0-57.3,47.8-57.3,55s1.6,15.9,4.7,21.7c3.1,7.2,6.2,13,10.8,17.4c4.6,4.4,10.8,8.7,17,11.6c7.7,2.9,15.5,4.4,23.2,4.4
			c12.4,0,23.2-2.9,32.5-8.7c9.3-5.8,15.5-14.5,20.1-26.1H333C331.5,279.1,329.9,281.9,325.3,284.9z M308.2,221.2
			c15.2,0,21.7,15.9,23.2,23.1h-49.5C281.9,242.9,285.6,221.2,308.2,221.2z"/>
	</g>
</g>
</svg>
