<?xml version="1.0" encoding="utf-8"?>
<!-- Generator: Adobe Illustrator 27.8.1, SVG Export Plug-In . SVG Version: 6.00 Build 0)  -->
<svg version="1.1" xmlns="http://www.w3.org/2000/svg" xmlns:xlink="http://www.w3.org/1999/xlink" x="0px" y="0px"
	 viewBox="0 0 481.9 481.9" style="enable-background:new 0 0 481.9 481.9;" xml:space="preserve">
<style type="text/css">
	.st0{fill:#FFFFFF;}
	.st1{display:none;}
	.st2{display:inline;fill:#EA2424;}
	.st3{display:inline;fill:#B73939;}
	.st4{fill:#4D4D4D;}
</style>
<g id="圖層_2">
	<path class="st0" d="M453.5,481.9H28.3C12.7,481.9,0,469.2,0,453.5V28.3C0,12.7,12.7,0,28.3,0h425.2c15.7,0,28.3,12.7,28.3,28.3
		v425.2C481.9,469.2,469.2,481.9,453.5,481.9z"/>
</g>
<g id="圖層_1">
	<g id="圖層_2_00000018919984843879512690000011108427134791735985_" class="st1">
		<ellipse class="st2" cx="238.1" cy="244" rx="73.4" ry="64.9"/>
	</g>
	<g id="圖層_2_00000157267754241206468390000013006896292678536895_" class="st1">
		<rect x="0.5" y="-5.9" class="st3" width="481.9" height="502"/>
	</g>
	<ellipse class="st0" cx="239.5" cy="230.2" rx="206" ry="198.4"/>
	<path class="st4" d="M175.6,354.6c0,1.6-1.9,2.8-3.8,2.8c-2.7,0.4-4.2-1.2-4.2-2.8c0-1.6,1.9-2.8,3.8-2.8
		C173.7,351.9,175.6,353,175.6,354.6z M151.8,351.1c-0.4,1.6,1.2,3.2,3.5,3.9c1.9,0.8,4.2,0,4.6-1.6s-1.2-3.2-3.5-3.9
		C154.5,349.1,152.1,349.5,151.8,351.1z M186,349.9c-2.3,0.4-3.8,2-3.5,3.9c0.4,1.6,2.3,2.4,4.6,2c2.3-0.4,3.8-2,3.5-3.6
		C190.2,350.7,188.3,349.5,186,349.9z M237.2,54.8c-107.8,0-190.1,80.9-190.1,187.8c0,85.6,54.3,158.6,131.6,184.2
		c10,1.6,13.5-4.3,13.5-9.5c0-4.7-0.4-31.2-0.4-47.3c0,0-54.3,11.4-65.8-22.9c0,0-8.9-22.5-21.6-28c0,0-17.7-12.2,1.2-11.8
		c0,0,19.2,1.6,30,19.7c16.9,29.6,45.4,21.3,56.6,16.2c1.9-12.2,6.9-20.9,12.3-26c-43.5-4.7-87-11-87-85.2
		c0-21.3,5.8-31.9,18.5-45.4c-1.9-5.1-8.5-25.6,1.9-52.5c16.2-5.1,53.5,20.9,53.5,20.9c15.4-4.3,32.3-6.7,48.9-6.7
		s33.1,2.4,48.9,6.7c0,0,37.3-26,53.5-20.9c10.8,26.8,3.8,47.3,1.9,52.5c12.3,13.8,20,24.5,20,45.4c0,74.2-45.8,80.5-88.9,85.2
		c7.3,5.9,13.1,17.7,13.1,35.9c0,26-0.4,58-0.4,64.3c0,5.1,3.5,11,13.5,9.5c77.7-25.6,130.1-98.6,130.1-184.2
		C431.9,135.7,344.6,54.8,237.2,54.8z M122.5,320.3c-1.2,0.8-0.8,2.4,0.4,3.9c1.2,1.2,3.1,1.6,3.8,0.8c1.2-0.8,0.8-2.4-0.4-3.9
		C125.2,319.9,123.7,319.5,122.5,320.3z M114,314c-0.4,1.2,0.4,2.4,1.9,3.2c1.2,0.8,2.7,0.4,3.5-0.4c0.4-1.2-0.4-2.4-1.9-3.2
		C116,313.2,114.8,313.2,114,314z M139.4,341.6c-1.2,1.2-0.8,3.2,1.2,4.7c1.9,1.6,3.8,2,5,0.8s0.4-3.2-1.2-4.7
		C142.5,340.4,140.2,340.4,139.4,341.6z M130.6,330.2c-1.2,0.8-1.2,2.8,0,4.7c1.2,1.6,3.5,2.4,4.2,1.6c1.2-1.2,1.2-3.2,0-4.7
		C133.7,330.2,131.7,329.4,130.6,330.2z"/>
</g>
</svg>
