<svg id="圖層_1" data-name="圖層 1" xmlns="http://www.w3.org/2000/svg" viewBox="0 0 56.69 56.69"><rect x="9.35" y="9.26" width="38" height="38" rx="6.44" style="fill:#fff;stroke:#4d4d4d;stroke-miterlimit:10;stroke-width:2px"/><path d="M18,36.43a.54.54,0,0,1-.42-.18.57.57,0,0,1-.16-.41V20.45a.57.57,0,0,1,.16-.42.57.57,0,0,1,.42-.17h3.09a.58.58,0,0,1,.43.17.57.57,0,0,1,.16.42v12.4h7.1a.54.54,0,0,1,.42.18.64.64,0,0,1,.17.44v2.37a.58.58,0,0,1-.17.41.54.54,0,0,1-.42.18Z" style="fill:#4d4d4d"/><path d="M31.82,36.43a.54.54,0,0,1-.42-.18.57.57,0,0,1-.16-.41V24.71a.57.57,0,0,1,.16-.41.54.54,0,0,1,.42-.18h2.7a.58.58,0,0,1,.43.18.55.55,0,0,1,.18.41v.95a4.15,4.15,0,0,1,1.48-1.14,4.7,4.7,0,0,1,2-.4h1a.57.57,0,0,1,.42.17.57.57,0,0,1,.16.42v2.44a.56.56,0,0,1-.16.41.54.54,0,0,1-.42.18H37.35a2,2,0,0,0-1.49.53,2.07,2.07,0,0,0-.52,1.51v6.06a.55.55,0,0,1-.18.41.58.58,0,0,1-.43.18Z" style="fill:#4d4d4d"/></svg>