<svg id="圖層_1" data-name="圖層 1" xmlns="http://www.w3.org/2000/svg" viewBox="0 0 56.69 56.69"><rect x="9.35" y="9.26" width="38" height="38" rx="6.44" style="fill:#fff;stroke:#4d4d4d;stroke-miterlimit:10;stroke-width:2px"/><path d="M16.5,36.43a.54.54,0,0,1-.42-.18.58.58,0,0,1-.17-.41V20.45a.58.58,0,0,1,.59-.59h6.56a8.78,8.78,0,0,1,3.39.6,5,5,0,0,1,2.25,1.81,5.4,5.4,0,0,1,.8,3.06,5.2,5.2,0,0,1-.8,3,4.78,4.78,0,0,1-2.25,1.76,9.4,9.4,0,0,1-3.39.56H20.27v5.19a.58.58,0,0,1-.17.41.6.6,0,0,1-.44.18Zm3.7-9h2.74a2.41,2.41,0,0,0,1.61-.52,2,2,0,0,0,.6-1.59,2.29,2.29,0,0,0-.52-1.51,2.06,2.06,0,0,0-1.69-.62H20.2Z" style="fill:#4d4d4d"/><path d="M36.56,36.67A8.45,8.45,0,0,1,34,36.32a6.13,6.13,0,0,1-1.74-.84,3.81,3.81,0,0,1-1-1,2,2,0,0,1-.35-.93.48.48,0,0,1,.16-.43.6.6,0,0,1,.4-.16h2.67a.27.27,0,0,1,.13,0l.13.09a4.18,4.18,0,0,1,.61.42,3.64,3.64,0,0,0,.7.44,2.35,2.35,0,0,0,1,.19,2,2,0,0,0,1.1-.28A.84.84,0,0,0,38.2,33a.91.91,0,0,0-.21-.62,2.1,2.1,0,0,0-.86-.49,12.63,12.63,0,0,0-1.93-.47,9.3,9.3,0,0,1-2.13-.75,3.64,3.64,0,0,1-1.41-1.2,3.24,3.24,0,0,1-.49-1.82,3.13,3.13,0,0,1,.61-1.82,4.39,4.39,0,0,1,1.78-1.43,6.75,6.75,0,0,1,2.9-.56,7.9,7.9,0,0,1,2.35.32,6,6,0,0,1,1.68.82,4.21,4.21,0,0,1,1,1,2,2,0,0,1,.37.94.51.51,0,0,1-.14.42.49.49,0,0,1-.38.18H39a.65.65,0,0,1-.19,0l-.16-.08a3.14,3.14,0,0,1-.57-.38,3.19,3.19,0,0,0-.65-.43,2.15,2.15,0,0,0-.94-.19,1.51,1.51,0,0,0-1,.29.89.89,0,0,0-.36.73.92.92,0,0,0,.2.57,1.83,1.83,0,0,0,.82.47,15.9,15.9,0,0,0,1.94.48,7,7,0,0,1,2.57.84A3.52,3.52,0,0,1,42,31.19a3.42,3.42,0,0,1,.41,1.62,3.21,3.21,0,0,1-.68,2,4.43,4.43,0,0,1-2,1.36A9.32,9.32,0,0,1,36.56,36.67Z" style="fill:#4d4d4d"/></svg>