<svg id="圖層_1" data-name="圖層 1" xmlns="http://www.w3.org/2000/svg" viewBox="0 0 56.69 56.69"><path d="M45.22,10.87a1.28,1.28,0,0,0-1.29-1.41H12.76a1.28,1.28,0,0,0-1.29,1.41l2.75,31.18a2.22,2.22,0,0,0,1.49,1.8L27,47.07a5.73,5.73,0,0,0,2.73,0L41,43.85a2.22,2.22,0,0,0,1.49-1.8Z" style="fill:#fff"/><path d="M45.22,10.87a1.28,1.28,0,0,0-1.29-1.41H12.76a1.28,1.28,0,0,0-1.29,1.41l2.75,31.18a2.22,2.22,0,0,0,1.49,1.8L27,47.07a5.73,5.73,0,0,0,2.73,0L41,43.85a2.22,2.22,0,0,0,1.49-1.8Z" style="fill:none;stroke:#4d4d4d;stroke-miterlimit:10;stroke-width:2px"/><polygon points="37.25 21.46 37.55 17.46 28.35 17.46 19.25 17.46 19.95 29.46 28.35 29.46 32.75 29.46 32.45 33.96 28.35 35.36 24.25 33.96 24.05 31.46 20.05 31.46 20.45 36.96 28.35 39.56 36.25 36.96 36.95 25.46 28.35 25.46 23.75 25.46 23.45 21.46 28.35 21.46 37.25 21.46" style="fill:#4d4d4d"/></svg>