<svg id="圖層_1" data-name="圖層 1" xmlns="http://www.w3.org/2000/svg" viewBox="0 0 56.69 56.69"><rect x="9.4" y="9" width="38" height="38" rx="6.44" style="fill:#fff;stroke:#4d4d4d;stroke-miterlimit:10;stroke-width:2px"/><path d="M19.28,36.28a.54.54,0,0,1-.42-.17.6.6,0,0,1-.16-.42V20.31a.57.57,0,0,1,.16-.43.57.57,0,0,1,.42-.16h3.14a.59.59,0,0,1,.43.16.55.55,0,0,1,.18.43V35.69a.58.58,0,0,1-.18.42.56.56,0,0,1-.43.17Z" style="fill:#4d4d4d"/><path d="M30.62,36.52a5.19,5.19,0,0,1-2-.37,4,4,0,0,1-1.55-1.08,5.22,5.22,0,0,1-1-1.76A8.24,8.24,0,0,1,25.66,31q0-.48,0-.84t0-.84A8.12,8.12,0,0,1,26.05,27a5.32,5.32,0,0,1,1-1.75,4.29,4.29,0,0,1,1.54-1.11,5.15,5.15,0,0,1,2-.39,4.79,4.79,0,0,1,2,.39,4.67,4.67,0,0,1,1.43,1V20.07a.59.59,0,0,1,.16-.43.57.57,0,0,1,.42-.16h2.86a.56.56,0,0,1,.41.16.57.57,0,0,1,.18.43V35.69a.58.58,0,0,1-.18.42.53.53,0,0,1-.41.17H34.86a.54.54,0,0,1-.42-.17.6.6,0,0,1-.16-.42v-.75a4.6,4.6,0,0,1-1.45,1.13A4.89,4.89,0,0,1,30.62,36.52Zm1.29-3.17A2,2,0,0,0,33.14,33a2.07,2.07,0,0,0,.68-.89,3.5,3.5,0,0,0,.25-1.18c0-.32,0-.62,0-.9s0-.58,0-.88a2.91,2.91,0,0,0-.26-1.1,2,2,0,0,0-.7-.83,2.43,2.43,0,0,0-2.43,0,1.82,1.82,0,0,0-.65.9,4.47,4.47,0,0,0-.25,1.26,7.12,7.12,0,0,0,0,1.46A4.47,4.47,0,0,0,30,32.12a1.82,1.82,0,0,0,.65.9A2.08,2.08,0,0,0,31.91,33.35Z" style="fill:#4d4d4d"/></svg>