<svg id="圖層_1" data-name="圖層 1" xmlns="http://www.w3.org/2000/svg" viewBox="0 0 56.69 56.69"><rect x="9.35" y="9" width="38" height="38" rx="6.44" style="fill:#fff;stroke:#4d4d4d;stroke-miterlimit:10;stroke-width:2px"/><path d="M17,36.7a.51.51,0,0,1-.34-.16.46.46,0,0,1-.15-.34.66.66,0,0,1,0-.21L22,20.79a1,1,0,0,1,.3-.46.84.84,0,0,1,.62-.2h3.46a.88.88,0,0,1,.63.2,1,1,0,0,1,.29.46L32.79,36a.46.46,0,0,1-.1.55.51.51,0,0,1-.37.16H29.44a.72.72,0,0,1-.53-.18,1,1,0,0,1-.22-.32l-.91-2.42H21.52l-.89,2.42a1,1,0,0,1-.21.32.74.74,0,0,1-.56.18Zm5.51-6.32h4.36l-2.18-6.25Z" style="fill:#4d4d4d"/><path d="M35,22.61a.57.57,0,0,1-.42-.16.59.59,0,0,1-.16-.43V19.89a.56.56,0,0,1,.16-.41A.54.54,0,0,1,35,19.3h2.81a.62.62,0,0,1,.59.59V22a.57.57,0,0,1-.18.43.56.56,0,0,1-.41.16Zm0,14.09a.55.55,0,0,1-.43-.18.6.6,0,0,1-.16-.42V25a.59.59,0,0,1,.16-.43.57.57,0,0,1,.43-.16h2.76a.57.57,0,0,1,.42.16.6.6,0,0,1,.17.43V36.1a.61.61,0,0,1-.17.42.54.54,0,0,1-.42.18Z" style="fill:#4d4d4d"/></svg>