<svg id="圖層_1" data-name="圖層 1" xmlns="http://www.w3.org/2000/svg" viewBox="0 0 56.69 56.69"><rect x="9.35" y="9.35" width="38" height="38" rx="6.44" style="fill:#fff;stroke:#4d4d4d;stroke-miterlimit:10;stroke-width:2px"/><path id="path0_fill" data-name="path0 fill" d="M23.83,43.58a4.69,4.69,0,0,0,4.68-4.68V34.22H23.83a4.68,4.68,0,1,0,0,9.36Z" style="fill:#4d4d4d"/><path id="path1_fill" data-name="path1 fill" d="M19.15,29a4.69,4.69,0,0,1,4.68-4.68h4.68v9.36H23.83A4.68,4.68,0,0,1,19.15,29Z" style="fill:#4d4d4d"/><path id="path1_fill-2" data-name="path1 fill" d="M19.15,19.12a4.68,4.68,0,0,1,4.68-4.68h4.68V23.8H23.83A4.69,4.69,0,0,1,19.15,19.12Z" style="fill:#4d4d4d"/><path id="path2_fill" data-name="path2 fill" d="M29.08,14.44h4.68a4.68,4.68,0,0,1,0,9.36H29.08Z" style="fill:#4d4d4d"/><path id="path3_fill" data-name="path3 fill" d="M38.44,29a4.68,4.68,0,1,1-4.68-4.68A4.68,4.68,0,0,1,38.44,29Z" style="fill:#4d4d4d"/></svg>