<svg id="圖層_1" data-name="圖層 1" xmlns="http://www.w3.org/2000/svg" viewBox="0 0 56.69 56.69"><path d="M45.22,10.87a1.28,1.28,0,0,0-1.29-1.41H12.76a1.28,1.28,0,0,0-1.29,1.41l2.75,31.18a2.22,2.22,0,0,0,1.49,1.8L27,47.07a5.73,5.73,0,0,0,2.73,0L41,43.85a2.22,2.22,0,0,0,1.49-1.8Z" style="fill:#fff"/><path d="M45.22,10.87a1.28,1.28,0,0,0-1.29-1.41H12.76a1.28,1.28,0,0,0-1.29,1.41l2.75,31.18a2.22,2.22,0,0,0,1.49,1.8L27,47.07a5.73,5.73,0,0,0,2.73,0L41,43.85a2.22,2.22,0,0,0,1.49-1.8Z" style="fill:none;stroke:#4d4d4d;stroke-miterlimit:10;stroke-width:2px"/><polygon points="28.4 17.3 19.2 17.3 19.5 21.3 28.4 21.3 33.3 21.3 33 25.3 28.4 25.3 23.8 25.3 24 29.3 28.4 29.3 32.8 29.3 32.5 33.8 28.4 35.2 24.3 33.8 24.2 31.3 20.2 31.3 20.5 36.8 28.4 39.4 36.3 36.8 37 25.3 37.5 17.3 28.4 17.3" style="fill:#4d4d4d"/></svg>