<svg id="圖層_1" data-name="圖層 1" xmlns="http://www.w3.org/2000/svg" viewBox="0 0 56.69 56.69"><rect x="9.35" y="9" width="38" height="38" rx="6.44" style="fill:#fff;stroke:#4d4d4d;stroke-miterlimit:10;stroke-width:2px"/><path d="M17.65,36.7a.53.53,0,0,1-.42-.18.61.61,0,0,1-.17-.42V20.72a.58.58,0,0,1,.17-.43.55.55,0,0,1,.42-.16h6.56a8.81,8.81,0,0,1,3.39.6,4.94,4.94,0,0,1,2.25,1.81,5.45,5.45,0,0,1,.8,3.05,5.29,5.29,0,0,1-.8,3,4.76,4.76,0,0,1-2.25,1.75,9.22,9.22,0,0,1-3.39.57H21.42V36.1a.58.58,0,0,1-.18.42.57.57,0,0,1-.43.18Zm3.7-9.05h2.74a2.36,2.36,0,0,0,1.61-.52,2,2,0,0,0,.59-1.58A2.31,2.31,0,0,0,25.78,24a2.09,2.09,0,0,0-1.69-.61H21.35Z" style="fill:#4d4d4d"/><path d="M32.72,36.7a.55.55,0,0,1-.43-.18.6.6,0,0,1-.16-.42V25a.6.6,0,0,1,.16-.42.58.58,0,0,1,.43-.17h2.69a.6.6,0,0,1,.43.17A.58.58,0,0,1,36,25v.95a4.18,4.18,0,0,1,1.49-1.14,4.64,4.64,0,0,1,2-.4h1a.57.57,0,0,1,.42.16.59.59,0,0,1,.16.43v2.44a.59.59,0,0,1-.16.41.54.54,0,0,1-.42.18H38.25a2,2,0,0,0-1.49.53,2.06,2.06,0,0,0-.53,1.5V36.1a.58.58,0,0,1-.18.42.57.57,0,0,1-.43.18Z" style="fill:#4d4d4d"/></svg>